<?xml version="1.0" encoding="UTF-8" standalone="no"?>
<svg
   version="1.1"
   id="Layer_1"
   x="0px"
   y="0px"
   width="98.969093"
   height="12.938863"
   viewBox="0 0 98.96909 12.938863"
   sodipodi:docname="0000.svg"
   inkscape:version="1.4.2 (f4327f4, 2025-05-13)"
   xmlns:inkscape="http://www.inkscape.org/namespaces/inkscape"
   xmlns:sodipodi="http://sodipodi.sourceforge.net/DTD/sodipodi-0.dtd"
   xmlns="http://www.w3.org/2000/svg"
   xmlns:svg="http://www.w3.org/2000/svg">
  <sodipodi:namedview
     id="namedview52"
     pagecolor="#ffffff"
     bordercolor="#000000"
     borderopacity="0.25"
     inkscape:showpageshadow="2"
     inkscape:pageopacity="0.0"
     inkscape:pagecheckerboard="0"
     inkscape:deskcolor="#d1d1d1"
     inkscape:zoom="9.0241936"
     inkscape:cx="44.602323"
     inkscape:cy="28.866845"
     inkscape:window-width="2560"
     inkscape:window-height="1364"
     inkscape:window-x="-8"
     inkscape:window-y="-8"
     inkscape:window-maximized="1"
     inkscape:current-layer="Layer_1" />
  <style
     id="style1">.quran-text {fill: #000000;}
.aya-dark {fill:none;stroke:#000000;stroke-width:0.5px;}
.day {}
.night {display:none;}</style>
  <defs
     id="defs2655">
    <radialGradient
       id="blueWhiteCenterLight"
       cx="0.5"
       cy="0.5"
       r="0.75"
       fx="0.5"
       fy="0.5">
      <stop
         offset="0%"
         style="stop-color:white; stop-opacity:1"
         id="stop1" />
      <stop
         offset="100%"
         style="stop-color:#8ebfe3; stop-opacity:1"
         id="stop2" />
    </radialGradient>
  </defs>
  <g
     linenumber="2"
     baseline="0"
     linetype="ltBasmalla"
     id="g65"
     transform="matrix(0.70439689,0,0,0.70439689,-101.66695,-73.482863)"
     style="stroke-width:1.41965">
    <g
       objectid="5002"
       sora="0"
       aya="0"
       linenumber="2"
       objecttype="otText"
       objecttext=""
       objecttextemlaey=""
       objectinayanumber="0"
       wowatuf="false"
       id="g64"
       style="stroke-width:1.41965">
      <path
         shapetype="870" class="quran-text"
         pathid="536"
         charindex="0"
         Unicode=""
         UnicodeChar=""
         UnicodeIndex="0"
         pathtext=""
         pathtextsimple=""
         d="M 198.791,104.3261 C 198.4014,104.374 197.8828,104.8882 197.4697,105.6777 C 197.3584,105.6357 197.25,105.5752 197.1465,105.4956 C 197.02249,105.4013 196.96289,105.42329 196.84959,105.4946 C 196.5771,105.67139 196.3701,105.92039 196.15329,106.3716 C 196.0674,106.54729 196.2354,106.5971 196.3232,106.47359 C 196.4258,106.3335 196.50879,106.21339 196.6787,106.082 C 196.77539,106.0058 196.8477,106.02238 196.9131,106.0962 C 197.3799,106.6762 198.55859,106.3369 199.25589,105.65179 C 199.3262,105.5801 199.3701,105.5239 199.41209,105.4389 C 199.7744,104.71339 199.3799,104.31538 198.89059,104.3203 C 198.85739,104.3203 198.8252,104.3232 198.791,104.3261 Z M 199.1465,105.2549 C 199.1543,105.2798 199.15329,105.28609 199.13179,105.3008 C 198.82709,105.5346 198.41209,105.70939 198.0488,105.7456 C 197.9404,105.75729 197.834,105.7558 197.72749,105.7426 C 198.0098,105.25139 198.3096,104.977 198.6416,104.9555 C 198.8916,104.9458 199.07419,105.0508 199.1465,105.2549 Z"
         id="path34"
         style="stroke-width:1.41965" />
      <path
         shapetype="870" class="quran-text"
         pathid="534"
         charindex="0"
         Unicode=""
         UnicodeChar=""
         UnicodeIndex="0"
         pathtext=""
         pathtextsimple=""
         d="M 233.37009,104.646 C 232.9863,104.6933 232.47659,105.2099 232.06929,106.00339 C 231.96001,105.9609 231.85449,105.90038 231.75101,105.8208 C 231.63089,105.7251 231.57129,105.7485 231.46089,105.8193 C 231.19139,105.99699 230.9863,106.2475 230.77339,106.7007 C 230.6904,106.87739 230.8555,106.9277 230.94139,106.8042 C 231.043,106.6626 231.12601,106.5415 231.291,106.4101 C 231.3857,106.3335 231.459,106.3501 231.5215,106.4248 C 231.9814,107.00729 233.1416,106.666 233.82709,105.9775 C 233.8965,105.9052 233.9395,105.8491 233.9814,105.7636 C 234.3369,105.0342 233.94919,104.6343 233.4688,104.6391 C 233.4346,104.6391 233.40329,104.643 233.37009,104.646 Z M 233.7197,105.57909 C 233.72749,105.603 233.7256,105.6103 233.7061,105.6245 C 233.40529,105.85979 232.9971,106.0356 232.63959,106.0722 C 232.53319,106.083 232.42679,106.082 232.3223,106.0693 C 232.6006,105.5757 232.89549,105.3003 233.22269,105.2783 C 233.4688,105.2676 233.64839,105.3735 233.7197,105.57909 Z"
         id="path35"
         style="stroke-width:1.41965" />
      <path
         shapetype="870" class="quran-text"
         pathid="532"
         charindex="0"
         Unicode=""
         UnicodeChar=""
         UnicodeIndex="0"
         pathtext=""
         pathtextsimple=""
         d="M 220.39839,104.6391 C 220.3662,104.6391 220.334,104.6421 220.3008,104.6455 C 219.918,104.69279 219.4063,105.2099 219.00101,106.00339 C 218.8916,105.96139 218.7852,105.90038 218.68359,105.8203 C 218.56149,105.7251 218.5029,105.7485 218.3916,105.8193 C 218.12399,105.9966 217.918,106.24699 217.7061,106.7007 C 217.62109,106.87739 217.7852,106.9277 217.8721,106.8042 C 217.97359,106.6626 218.05659,106.5415 218.2227,106.4101 C 218.3174,106.3335 218.38959,106.3501 218.45309,106.42429 C 218.9131,107.00729 220.0723,106.6655 220.75879,105.978 C 220.82809,105.9052 220.8701,105.84859 220.9131,105.7636 C 221.26759,105.0342 220.88089,104.6343 220.39839,104.6386 Z M 220.6494,105.57809 C 220.65919,105.603 220.6563,105.6093 220.6377,105.6245 C 220.3369,105.85979 219.9287,106.0351 219.5703,106.0722 C 219.4639,106.083 219.3584,106.08099 219.25389,106.06879 C 219.5313,105.5752 219.82619,105.2998 220.1543,105.27779 C 220.3994,105.2676 220.58009,105.3735 220.6494,105.57809 Z"
         id="path36"
         style="stroke-width:1.41965" />
      <path
         shapetype="870" class="quran-text"
         pathid="530"
         charindex="0"
         Unicode=""
         UnicodeChar=""
         UnicodeIndex="0"
         pathtext=""
         pathtextsimple=""
         d="M 207.51559,105.5869 C 203.5508,107.63029 203.5508,107.63029 203.5508,107.63029 C 203.4453,107.687 203.41209,107.71529 203.3848,107.81 C 203.28909,108.1587 203.28909,108.1587 203.28909,108.1587 C 203.2061,108.4892 203.25101,108.4248 203.5625,108.25729 C 204.65039,107.67039 206.4189,106.8017 207.541,106.1841 C 207.6924,106.1001 207.67479,106.1157 207.6973,105.9892 C 207.7383,105.72459 207.7383,105.72459 207.7383,105.72459 C 207.7852,105.4292 207.793,105.436 207.51559,105.5869 Z"
         id="path37"
         style="stroke-width:1.41965" />
      <path
         shapetype="870" class="quran-text"
         pathid="529"
         charindex="0"
         Unicode=""
         UnicodeChar=""
         UnicodeIndex="0"
         pathtext=""
         pathtextsimple=""
         d="M 229.0674,105.70939 C 225.0645,107.23038 225.0645,107.23038 225.0645,107.23038 C 224.9482,107.27779 224.91019,107.3022 224.8701,107.3979 C 224.72749,107.74799 224.72749,107.74799 224.72749,107.74799 C 224.60249,108.0815 224.65529,108.0205 225.00101,107.8833 C 226.20209,107.4048 227.78029,106.8388 229.0195,106.3325 C 229.18849,106.2627 229.168,106.2773 229.2061,106.14838 C 229.2813,105.87839 229.2813,105.87839 229.2813,105.87839 C 229.36429,105.5776 229.3721,105.5859 229.0674,105.70939 Z"
         id="path38"
         style="stroke-width:1.41965" />
      <path
         shapetype="870" class="quran-text"
         pathid="528"
         charindex="0"
         Unicode=""
         UnicodeChar=""
         UnicodeIndex="0"
         pathtext=""
         pathtextsimple=""
         d="M 192.85159,106.2505 C 189.21829,107.727 189.21829,107.727 189.21829,107.727 C 189.0923,107.7788 189.0513,107.8061 189.0098,107.90919 C 188.8613,108.2837 188.8613,108.2837 188.8613,108.2837 C 188.731,108.64059 188.78859,108.5752 189.1626,108.4218 C 190.46579,107.8862 191.47069,107.4809 192.81349,106.9145 C 192.99609,106.83639 192.97459,106.8525 193.0127,106.71429 C 193.0889,106.4262 193.0889,106.4262 193.0889,106.4262 C 193.1738,106.105 193.1826,106.1133 192.85159,106.2505 Z"
         id="path39"
         style="stroke-width:1.41965" />
      <path
         shapetype="870" class="quran-text"
         pathid="527"
         charindex="0"
         Unicode=""
         UnicodeChar=""
         UnicodeIndex="0"
         pathtext=""
         pathtextsimple=""
         d="M 214.793,106.4248 C 211.4668,107.90279 211.4668,107.90279 211.4668,107.90279 C 211.3604,107.9536 211.3252,107.9809 211.293,108.0747 C 211.17969,108.4175 211.17969,108.4175 211.17969,108.4175 C 211.082,108.7431 211.12889,108.6811 211.4482,108.5288 C 212.56349,107.99609 213.6377,107.58439 214.78609,107.02338 C 214.94339,106.9458 214.92479,106.96039 214.95309,106.83439 C 215.0078,106.5732 215.0078,106.5732 215.0078,106.5732 C 215.0674,106.2812 215.0752,106.2876 214.793,106.4248 Z"
         id="path40"
         style="stroke-width:1.41965" />
      <path
         shapetype="870" class="quran-text"
         pathid="526"
         charindex="0"
         Unicode=""
         UnicodeChar=""
         UnicodeIndex="0"
         pathtext=""
         pathtextsimple=""
         d="M 194.1104,106.625 C 193.9736,106.8603 193.83299,107.0859 193.6973,107.3203 C 193.64749,107.4057 193.68159,107.5561 193.709,107.6318 C 193.78999,107.852 193.89259,108.0786 194.01169,108.2885 C 194.25,109.6992 194.4736,110.5737 194.65039,111.5639 C 194.8252,112.5449 195.05659,113.5732 195.19139,114.43259 C 194.6113,114.9179 193.19919,114.7812 192.8896,114.4209 C 192.6846,114.1821 192.6797,114.2353 192.6396,114.5737 C 192.5898,114.89938 192.5137,115.291 192.7822,115.5859 C 192.90039,115.71629 193.1436,115.81538 193.43159,115.88959 C 193.0244,117.05949 192.0625,118.0581 191.1611,118.4917 C 189.8477,119.1225 188.5063,119.02238 187.20749,118.66309 C 186.88179,118.5718 186.6875,118.8252 187.125,118.98869 C 188.60939,119.53899 190.3076,120.0117 191.47459,119.5068 C 192.5537,119.03999 193.40819,117.6152 193.86719,115.94138 C 194.3418,115.94379 194.73729,115.8501 195.0361,115.7075 C 195.3916,115.53709 195.5215,115.27538 195.6055,114.9507 C 195.7715,114.31 195.7021,113.5532 195.5107,112.5078 C 195.26169,111.1562 194.67969,108.4995 194.67969,108.4995 C 194.7764,108.3808 194.86719,108.2641 194.96289,108.145 C 195.0107,108.08539 195.1035,107.9052 194.98239,107.7558 C 194.7529,107.4687 194.51759,107.09959 194.3584,106.6596 C 194.30469,106.5122 194.2607,106.47359 194.2197,106.48679 C 194.17969,106.5 194.1416,106.5713 194.1104,106.625 Z"
         id="path41"
         style="stroke-width:1.41965" />
      <path
         shapetype="870" class="quran-text"
         pathid="525"
         charindex="0"
         Unicode=""
         UnicodeChar=""
         UnicodeIndex="0"
         pathtext=""
         pathtextsimple=""
         d="M 197.2168,107.04539 C 196.9326,107.542 196.9258,107.9477 197.0166,108.4468 C 197.42189,110.7456 198.14839,113.1728 198.2637,116.3266 C 198.28999,116.77438 198.3564,116.5459 198.42769,116.3579 C 199.2607,114.16109 198.1064,111.31049 197.42189,107.1025 C 197.36719,106.77338 197.34569,106.7426 197.2168,107.04539 Z"
         id="path42"
         style="stroke-width:1.41965" />
      <path
         shapetype="870" class="quran-text"
         pathid="524"
         charindex="0"
         Unicode=""
         UnicodeChar=""
         UnicodeIndex="0"
         pathtext=""
         pathtextsimple=""
         d="M 216.1416,106.875 C 216.10159,106.8882 216.0625,106.96039 216.0322,107.0146 C 215.8994,107.251 215.7607,107.479 215.6279,107.7148 C 215.58009,107.8008 215.61519,107.9507 215.6436,108.0263 C 215.72749,108.2456 215.832,108.4707 215.95509,108.6792 C 215.99219,108.87639 216.0264,109.0718 216.0625,109.2705 C 216.29979,110.54 216.4102,111.0171 216.70119,112.5522 C 216.88669,113.5312 217.09959,114.55659 217.24609,115.4145 C 216.6709,115.9072 215.25679,115.7876 214.94339,115.4306 C 214.7363,115.19379 214.73239,115.24699 214.69429,115.5859 C 214.6494,115.9116 214.57709,116.3047 214.8506,116.59669 C 214.9697,116.7251 215.2148,116.8218 215.50389,116.893 C 215.10939,118.06738 214.1602,119.0771 213.26369,119.521 C 211.957,120.1679 210.61519,120.0835 209.3125,119.7392 C 208.9854,119.6523 208.79489,119.9087 209.23439,120.0659 C 210.72459,120.59859 212.4287,121.0517 213.5898,120.5327 C 214.6631,120.0532 215.50101,118.6176 215.9395,116.9389 C 216.41409,116.93549 216.8076,116.8369 217.1055,116.6899 C 217.45799,116.51659 217.58501,116.25239 217.666,115.9277 C 217.82419,115.2851 217.7285,114.5317 217.541,113.4863 C 217.33501,112.3315 217.08501,111.29829 216.8877,110.2192 C 216.8076,109.7812 216.7119,109.3413 216.623,108.8818 C 216.7197,108.7622 216.8105,108.644 216.9043,108.5239 C 216.9502,108.46339 217.041,108.2817 216.9189,108.1347 C 216.6855,107.8501 216.4453,107.48389 216.2813,107.0459 C 216.2256,106.89938 216.18159,106.8613 216.1416,106.875 Z"
         id="path43"
         style="stroke-width:1.41965" />
      <path
         shapetype="870" class="quran-text"
         pathid="523"
         charindex="0"
         Unicode=""
         UnicodeChar=""
         UnicodeIndex="0"
         pathtext=""
         pathtextsimple=""
         d="M 219.4209,107.3125 C 219.13669,107.8286 219.1299,108.2495 219.22069,108.76849 C 219.62601,111.1548 220.35249,113.6748 220.46779,116.9507 C 220.49409,117.4155 220.5605,117.1777 220.63179,116.98338 C 221.4639,114.7016 220.3096,111.7412 219.62601,107.3735 C 219.5703,107.0302 219.54979,106.999 219.4209,107.3125 Z"
         id="path44"
         style="stroke-width:1.41965" />
      <path
         shapetype="870" class="quran-text"
         pathid="522"
         charindex="0"
         Unicode=""
         UnicodeChar=""
         UnicodeIndex="0"
         pathtext=""
         pathtextsimple=""
         d="M 232.1445,107.375 C 231.8604,107.8911 231.85449,108.3115 231.9453,108.8305 C 232.3506,111.2173 233.07619,113.7378 233.1924,117.0117 C 233.2188,117.477 233.28519,117.2397 233.3564,117.0449 C 234.18849,114.7641 233.03419,111.8032 232.3506,107.435 C 232.29489,107.0918 232.27539,107.0615 232.1445,107.375 Z"
         id="path45"
         style="stroke-width:1.41965" />
      <path
         shapetype="870" class="quran-text"
         pathid="521"
         charindex="0"
         Unicode=""
         UnicodeChar=""
         UnicodeIndex="0"
         pathtext=""
         pathtextsimple=""
         d="M 228.54689,107.96139 C 228.3633,108.29 228.3633,108.29 228.3633,108.29 C 228.3174,108.3657 228.3154,108.4238 228.3232,108.5327 C 228.3232,108.5346 228.3232,108.5346 228.3232,108.5346 C 228.3613,109.11909 228.3613,109.11909 228.3613,109.11909 C 228.3662,109.1753 228.35159,109.1841 228.32129,109.20939 C 228.1299,109.334 227.875,109.39159 227.6514,109.3862 C 227.5732,109.3862 227.5732,109.3525 227.5703,109.3032 C 227.55469,108.438 227.55469,108.438 227.55469,108.438 C 227.54979,108.3027 227.4648,108.31 227.41109,108.4013 C 227.22269,108.70939 227.22269,108.70939 227.22269,108.70939 C 227.1523,108.82909 227.15819,108.8882 227.1572,109.0151 C 227.17189,109.5683 227.17189,109.5683 227.17189,109.5683 C 227,109.68449 226.78709,109.7832 226.57419,109.771 C 226.27249,109.749 226.2197,109.66109 226.2168,109.4301 C 226.21579,109.27538 226.25679,109.08099 226.291,108.90279 C 226.35249,108.7011 226.2168,108.66399 226.1494,108.7988 C 225.99019,109.10889 225.873,109.4546 225.85249,109.7558 C 225.8291,110.2397 226.0127,110.4741 226.46089,110.48138 C 226.69139,110.4775 226.97949,110.35889 227.33009,110.0503 C 227.66209,110.07909 228.04201,110.01559 228.39749,109.7705 C 228.73929,109.51559 228.72169,109.33099 228.752,109.00139 C 228.75879,108.7011 228.7334,108.311 228.6953,107.9985 C 228.6846,107.83099 228.59859,107.8799 228.54689,107.96139 Z"
         id="path46"
         style="stroke-width:1.41965" />
      <path
         shapetype="870" class="quran-text"
         pathid="520"
         charindex="0"
         Unicode=""
         UnicodeChar=""
         UnicodeIndex="0"
         pathtext=""
         pathtextsimple=""
         d="M 207.78909,108.0229 C 207.3965,108.1679 207.01759,108.5405 206.88959,109.0425 C 206.8447,109.1753 206.9014,109.24409 207.00589,109.1557 C 207.3125,108.83439 207.5439,108.7182 207.90039,108.6997 C 208.2236,108.6831 208.66989,108.74409 209.0293,108.89159 C 208.7334,109.1176 208.1055,109.53609 207.62109,109.7929 C 207.4189,109.89938 207.45799,110.0547 207.64839,110.01659 C 208.3613,109.8979 209.2139,109.3969 209.73729,108.91839 C 209.91499,108.73579 210.0098,108.46429 209.55469,108.25629 C 209.08009,108.0312 208.30569,107.832 207.78909,108.0229 Z"
         id="path47"
         style="stroke-width:1.41965" />
      <path
         shapetype="870" class="quran-text"
         pathid="519"
         charindex="0"
         Unicode=""
         UnicodeChar=""
         UnicodeIndex="0"
         pathtext=""
         pathtextsimple=""
         d="M 192.44919,108.4282 C 192.2813,108.7251 192.2813,108.7251 192.2813,108.7251 C 192.24019,108.79339 192.23729,108.8462 192.24409,108.94479 C 192.24409,108.9458 192.24409,108.9458 192.24409,108.9458 C 192.28029,109.4741 192.28029,109.4741 192.28029,109.4741 C 192.28319,109.52538 192.27049,109.5337 192.24319,109.5556 C 192.0674,109.66839 191.83501,109.7207 191.63089,109.7158 C 191.5596,109.7163 191.5596,109.68549 191.5576,109.6411 C 191.54201,108.85838 191.54201,108.85838 191.54201,108.85838 C 191.53709,108.73679 191.459,108.7431 191.4111,108.8257 C 191.2383,109.105 191.2383,109.105 191.2383,109.105 C 191.1758,109.21239 191.18069,109.26559 191.1787,109.3808 C 191.1924,109.88129 191.1924,109.88129 191.1924,109.88129 C 191.0361,109.9863 190.8403,110.0747 190.64749,110.0635 C 190.37059,110.0439 190.32179,109.9648 190.31839,109.75529 C 190.31839,109.6162 190.356,109.44038 190.38719,109.2788 C 190.4438,109.0962 190.31929,109.0635 190.2578,109.185 C 190.1133,109.4658 190.00589,109.7773 189.9883,110.0503 C 189.9653,110.4878 190.13379,110.6987 190.543,110.707 C 190.75389,110.70309 191.01759,110.5957 191.33789,110.31538 C 191.6396,110.3418 191.98729,110.2846 192.3125,110.0625 C 192.625,109.833 192.6084,109.665 192.63669,109.3681 C 192.6416,109.0962 192.6201,108.7436 192.584,108.4609 C 192.5752,108.31 192.49609,108.3535 192.44919,108.4282 Z"
         id="path48"
         style="stroke-width:1.41965" />
      <path
         shapetype="870" class="quran-text"
         pathid="518"
         charindex="0"
         Unicode=""
         UnicodeChar=""
         UnicodeIndex="0"
         pathtext=""
         pathtextsimple=""
         d="M 277.3848,108.665 C 276.99118,108.81049 276.61328,109.18259 276.48441,109.6841 C 276.43948,109.81638 276.49609,109.8867 276.60059,109.79729 C 276.9082,109.477 277.1387,109.35979 277.49408,109.3418 C 277.81931,109.3247 278.2637,109.3852 278.62399,109.5337 C 278.3291,109.7597 277.7002,110.1777 277.21579,110.435 C 277.0137,110.5425 277.05368,110.6968 277.24319,110.6577 C 277.95801,110.53899 278.8096,110.03899 279.33401,109.56049 C 279.51068,109.37739 279.6055,109.10638 279.15039,108.89838 C 278.6748,108.67229 277.9014,108.4741 277.3848,108.665 Z"
         id="path49"
         style="stroke-width:1.41965" />
      <path
         shapetype="870" class="quran-text"
         pathid="517"
         charindex="0"
         Unicode=""
         UnicodeChar=""
         UnicodeIndex="0"
         pathtext=""
         pathtextsimple=""
         d="M 214.6328,108.6562 C 214.46579,108.9536 214.46579,108.9536 214.46579,108.9536 C 214.4238,109.0219 214.42189,109.0747 214.42769,109.17429 C 214.42769,109.1753 214.42769,109.1753 214.42769,109.1753 C 214.4639,109.70309 214.4639,109.70309 214.4639,109.70309 C 214.4668,109.75439 214.4541,109.7627 214.42679,109.7842 C 214.252,109.8979 214.0186,109.9497 213.8145,109.9443 C 213.74409,109.94479 213.74409,109.9145 213.74019,109.86909 C 213.7256,109.08739 213.7256,109.08739 213.7256,109.08739 C 213.72069,108.9648 213.6445,108.9712 213.5947,109.0537 C 213.4229,109.333 213.4229,109.333 213.4229,109.333 C 213.35939,109.44038 213.36429,109.49409 213.36229,109.60979 C 213.37601,110.1093 213.37601,110.1093 213.37601,110.1093 C 213.2188,110.21529 213.0244,110.3032 212.8311,110.292 C 212.5537,110.2729 212.50589,110.19279 212.5029,109.9843 C 212.502,109.8447 212.53999,109.66839 212.57129,109.50729 C 212.62889,109.3247 212.50389,109.2915 212.4424,109.41309 C 212.29689,109.69379 212.1895,110.00629 212.17189,110.2783 C 212.14839,110.7163 212.31839,110.9272 212.72749,110.93549 C 212.93849,110.9306 213.20119,110.8237 213.5215,110.5449 C 213.8232,110.5708 214.1709,110.5127 214.4971,110.2915 C 214.80859,110.0615 214.793,109.894 214.81929,109.5967 C 214.82619,109.3247 214.8037,108.9721 214.76759,108.68938 C 214.7598,108.5385 214.68069,108.5825 214.6328,108.6562 Z"
         id="path50"
         style="stroke-width:1.41965" />
      <path
         shapetype="870" class="quran-text"
         pathid="516"
         charindex="0"
         Unicode=""
         UnicodeChar=""
         UnicodeIndex="0"
         pathtext=""
         pathtextsimple=""
         d="M 203.377,109.3091 C 203.22659,109.726 203.22659,109.726 203.22659,109.726 C 203.1855,109.8559 203.16701,109.8501 203.2813,110.01849 C 203.6602,110.56538 203.8936,110.9843 204.0576,111.3789 C 204.2773,111.9023 204.373,112.38029 204.40919,113.12639 C 204.40919,113.12639 204.3916,113.6045 204.60939,113.10059 C 204.7988,112.4985 204.75101,111.72169 204.47659,110.9956 C 204.2607,110.40038 203.90819,109.833 203.5293,109.31979 C 203.4727,109.2417 203.4023,109.2177 203.377,109.3091 Z"
         id="path51"
         style="stroke-width:1.41965" />
      <path
         shapetype="870" class="quran-text"
         pathid="515"
         charindex="0"
         Unicode=""
         UnicodeChar=""
         UnicodeIndex="0"
         pathtext=""
         pathtextsimple=""
         d="M 281.25589,110.3901 C 281.2178,110.4087 281.19528,110.4741 281.17868,110.5459 C 281.11328,110.8193 281.05078,111.376 281.02249,111.604 C 281.0127,111.7866 281.01559,111.7456 281.13181,111.9463 C 281.2236,112.08639 281.4277,112.3418 281.58301,112.50629 C 281.7002,112.62939 281.73239,112.6333 281.84769,112.50629 C 282.58789,113.3623 283.12299,114.2925 283.3252,115.0415 C 283.43948,115.4677 283.43359,115.4897 283.16989,115.5395 C 282.70801,115.624 281.75681,115.2949 281.44339,115.14938 C 281.48138,115.0346 281.5264,114.9433 281.56839,114.8081 C 281.67191,114.46239 281.41888,114.4165 281.27148,114.73038 C 281.0918,115.1142 280.94528,115.5395 280.71188,115.9907 C 280.64258,116.124 280.58301,116.14259 280.41599,116.09959 C 279.99509,115.9897 279.67868,115.90179 279.3584,115.726 C 279.48538,115.4599 279.59958,115.1753 279.7002,114.8857 C 279.81448,114.5849 279.53519,114.56 279.4209,114.8081 C 279.17969,115.31738 278.89258,115.7197 278.4404,115.95939 C 277.7822,116.30759 276.23239,116.5239 275.99899,115.78809 C 276.06839,115.6523 276.12988,115.54729 276.19339,115.4145 C 276.33008,115.1289 276.168,115.08099 275.82709,115.21239 C 273.88959,116.06049 268.8555,116.95209 263.08688,117.5468 C 258.88278,117.979 246.2471,118.9697 240.64159,117.20309 C 239.6572,116.89349 238.8535,116.5942 238.13669,115.7417 C 237.83501,115.38229 237.5791,115.4819 237.34279,115.66399 C 237.002,115.9253 236.5,116.5425 236.40919,116.8462 C 236.33589,117.09669 236.30569,117.60538 236.5195,117.9658 C 235.74609,118.851 234.5322,119.6421 233.252,120.31438 C 233.1104,120.3891 232.95509,120.561 233.28319,120.50139 C 234.28319,120.3222 235.07709,120.0522 235.78709,119.56779 C 236.25389,119.25139 236.6377,118.8203 236.78319,118.23 C 236.80469,118.24409 236.82129,118.26459 236.84569,118.2773 C 237.3369,118.5317 238.2598,118.68159 239.02339,118.7905 C 239.33009,118.8335 239.3506,118.8261 239.3965,118.5415 C 239.47459,118.0439 239.47459,118.0439 239.47459,118.0439 C 242.11719,119.084 247.57619,119.4433 252.83589,119.3037 C 258.79788,119.145 264.74899,118.6162 270.21188,117.5932 C 272.33401,117.19479 274.6738,116.601 275.42288,116.2549 C 275.64749,117.226 276.2793,117.39159 276.97949,117.35979 C 277.60739,117.31879 278.21188,117.1421 278.65918,116.73679 C 278.68649,116.7109 278.70901,116.68549 278.73538,116.6596 C 279.04489,116.97459 279.50391,117.143 280.10449,117.2505 C 280.30078,117.2851 280.4697,117.3003 280.58688,117.07909 C 280.7998,116.67969 280.957,116.3843 281.10159,116.0683 C 281.86328,116.4189 282.36819,116.688 282.98239,116.6899 C 283.6846,116.69238 283.668,116.1992 283.7764,115.6328 C 283.8623,114.9985 283.75488,114.3979 283.58978,113.82809 C 283.22949,112.5815 282.30179,111.47259 281.4277,110.499 C 281.34769,110.4048 281.2959,110.37199 281.25589,110.3901 Z M 237.8398,116.3481 C 238.0654,116.84859 238.34079,117.2446 238.65039,117.5468 C 237.9971,117.4253 237.31149,117.2905 236.8613,117.0322 C 236.72749,116.95509 236.7314,116.89349 236.81349,116.7837 C 236.97169,116.5761 237.2061,116.41399 237.4375,116.2549 C 237.51459,116.2007 237.6006,116.167 237.66989,116.1777 C 237.74019,116.1865 237.793,116.2431 237.8398,116.3481 Z"
         id="path52"
         style="stroke-width:1.41965" />
      <path
         shapetype="870" class="quran-text"
         pathid="513"
         charindex="0"
         Unicode=""
         UnicodeChar=""
         UnicodeIndex="0"
         pathtext=""
         pathtextsimple=""
         d="M 229.7822,110.73238 C 229.74319,110.7597 229.69919,110.8569 229.65919,111.0127 C 229.6133,111.2173 229.498,111.5571 229.457,111.77538 C 229.40819,111.91309 229.457,112.0537 229.457,112.14838 C 229.7813,113.52238 230.293,114.7837 230.748,115.77238 C 230.84279,116.00139 230.7314,116.0918 230.5459,116.0835 C 230.0723,116.0625 229.4043,115.7636 229.05179,115.3838 C 228.8223,115.1352 228.69139,114.8227 228.56929,114.2949 C 228.3877,113.49509 228.18649,112.60538 227.99509,111.4482 C 227.918,110.98579 227.81149,110.9526 227.68359,111.3857 C 227.63869,111.53609 227.5918,111.61909 227.543,111.8061 C 227.4971,111.98338 227.48239,111.9795 227.5127,112.1328 C 228.13379,115.2436 228.13379,115.2436 228.13379,115.2436 C 227.87601,116.02779 227.23929,116.3735 226.6104,116.44138 C 225.9756,116.457 225.7314,116.0385 225.6299,115.5239 C 225.58009,115.269 225.49899,114.9629 225.46001,114.5747 C 225.38179,113.813 225.293,113.3423 225.25679,112.584 C 225.24609,112.37299 225.19339,112.38029 225.11719,112.56779 C 224.88379,113.12839 224.88379,113.12839 224.88379,113.12839 C 224.832,113.25339 224.84279,113.2807 224.85159,113.393 C 224.85939,113.476 224.8613,113.5581 224.86719,113.6411 C 224.2305,113.83539 223.38179,114.229 222.8145,114.99509 C 222.53709,115.3686 222.38869,115.811 222.25389,116.3633 C 222.20799,116.55859 222.20119,116.6533 222.3779,116.6899 C 222.709,116.7583 223.36819,116.749 223.73239,116.7212 C 223.9971,116.7011 224.05269,116.6831 224.2148,116.56538 C 224.4639,116.3862 224.7988,116.0708 225.08501,115.78809 C 225.11909,116.0395 225.15329,116.28419 225.19429,116.519 C 225.3145,117.2065 225.83789,117.63129 226.39259,117.6235 C 227.2686,117.61179 228.0479,116.9638 228.3828,116.0835 C 228.89839,116.93449 229.7744,117.21429 230.37399,117.2343 C 230.6523,117.2446 230.76369,117.1548 230.8877,116.9238 C 231.1084,116.5141 231.209,116.0537 231.24509,115.6943 C 231.30269,115.1455 231.18849,114.6997 231.0127,114.31 C 230.51559,113.21339 230.127,112.04339 229.93849,111.0127 C 229.9023,110.8027 229.8506,110.687 229.7822,110.73238 Z M 225.03909,115.3838 C 224.37601,115.6186 223.65919,115.708 222.93849,115.6328 C 222.87601,115.626 222.90329,115.5947 222.93849,115.5547 C 223.4229,115.0146 224.21579,114.6977 224.92969,114.35638 C 224.96001,114.7055 224.99899,115.0508 225.03909,115.3838 Z"
         id="path53"
         style="stroke-width:1.41965" />
      <path
         shapetype="870" class="quran-text"
         pathid="511"
         charindex="0"
         Unicode=""
         UnicodeChar=""
         UnicodeIndex="0"
         pathtext=""
         pathtextsimple=""
         d="M 207.88379,111.2021 C 207.457,111.45599 207.15039,111.89059 206.9512,112.3379 C 206.86519,112.602 206.96779,112.70939 207.1846,112.52489 C 208.18849,111.77589 209.44139,112.1972 210.373,112.7885 C 208.67679,112.97649 208.67679,112.97649 208.67679,112.97649 C 208.16989,113.0068 207.8506,113.04639 207.50389,113.1865 C 207.05569,113.3686 206.88089,113.7529 206.6328,114.1093 C 206.44429,114.35538 206.22949,114.5947 205.97069,114.749 C 205.584,114.979 205.09079,115.03999 204.53909,115.0127 C 204.1387,114.99409 204.1064,114.91309 203.93359,114.686 C 203.78909,114.499 203.5938,114.21039 203.48239,114.0019 C 203.36909,113.7617 203.23439,113.7617 203.18649,113.98679 C 203.1387,114.2905 203.10939,114.4599 203.06149,114.7641 C 203.03029,114.9238 203.02829,115.02438 203.125,115.18449 C 203.293,115.4575 203.6787,115.8847 203.8398,116.4599 C 203.0078,118.3091 200.2256,119.8603 196.3584,120.86179 C 192.71001,121.80659 188.03169,121.64059 185.11079,120.8315 C 183.7153,120.4692 182.42679,119.9966 181.36519,119.5078 C 180.14059,118.94279 179.18849,118.3408 178.2202,117.61079 C 177.82179,117.3061 177.69139,117.56638 177.97169,117.8755 C 179.0313,119.04539 179.76219,119.6963 180.5049,120.1899 C 181.15529,120.6206 181.8154,120.9082 182.71579,121.2505 C 187.78659,123.1806 192.97749,122.9043 196.6846,121.9575 C 198.23929,121.5591 200.7578,120.75239 202.23439,119.46339 C 203.8848,118.13959 204.12889,117.17969 204.32129,116.17969 C 204.81149,116.1972 205.28909,116.0962 205.6445,115.9463 C 205.9424,115.8203 206.4063,115.35249 206.64839,114.9282 C 206.6416,115.2309 206.7529,115.3437 207.0127,115.5273 C 207.50589,115.8745 208.7979,115.92039 209.06639,115.8379 C 209.14059,115.8149 209.20509,115.7475 209.2383,115.5888 C 209.34669,115.0498 209.4502,114.34129 209.11819,113.6997 C 210.4258,113.3613 212.25,113.5971 213.65529,114.0649 C 213.8848,114.1299 213.89839,114.1343 214.0127,113.9555 C 214.1543,113.73389 214.291,113.5078 214.43359,113.2866 C 214.5508,113.104 214.55569,113.0722 214.3398,113.0532 C 212.88089,112.96139 211.18849,112.2192 209.9688,111.35789 C 209.56929,111.0761 209.1953,110.9492 208.8486,110.938 C 208.502,110.9267 208.18159,111.02538 207.88379,111.2021 Z M 207.86909,113.8779 C 208.26759,113.92429 208.59279,114.2812 208.7549,114.7021 C 208.7773,114.7436 208.77249,114.76849 208.72459,114.7641 C 208.0918,114.7837 207.4814,114.6465 207.1064,114.26659 C 207.06839,114.228 207.06639,114.1982 207.1064,114.1577 C 207.32809,113.959 207.52049,113.8911 207.6982,113.8779 C 207.75589,113.8725 207.81349,113.87109 207.86909,113.8779 Z"
         id="path54"
         style="stroke-width:1.41965" />
      <path
         shapetype="870" class="quran-text"
         pathid="509"
         charindex="0"
         Unicode=""
         UnicodeChar=""
         UnicodeIndex="0"
         pathtext=""
         pathtextsimple=""
         d="M 185.13379,111.437 C 184.3472,111.4907 183.6147,112.0898 183.35939,113.0239 C 183.27249,113.3427 183.4229,113.3628 183.57759,113.226 C 183.96339,112.8857 184.6797,112.6572 185.2422,112.6972 C 185.8232,112.7397 186.7524,113.0635 187.79149,113.396 C 186.918,113.64349 185.772,114.1797 184.54201,114.4092 C 183.772,114.5512 183.34079,114.5342 182.7993,114.2221 C 182.84619,114.1137 182.8716,113.9995 182.9023,113.8945 C 182.9839,113.6235 182.8257,113.5141 182.5508,113.75529 C 181.5083,114.666 179.7144,115.2817 178.50589,115.66839 C 172.43649,117.5708 160.1978,118.7739 151.98439,116.1943 C 151.0029,115.8769 150.103,115.5415 149.3867,114.688 C 149.08501,114.3296 148.814,114.44479 148.5771,114.626 C 148.2363,114.8877 147.7339,115.50439 147.6436,115.80759 C 147.5688,116.0625 147.5435,116.56638 147.7686,116.9282 C 146.99609,117.81049 145.76219,118.5918 144.4863,119.2617 C 144.3452,119.3359 144.20459,119.5068 144.5332,119.4482 C 145.5322,119.269 146.3262,118.9995 147.0376,118.5146 C 147.5034,118.1977 147.8877,117.768 148.03369,117.1767 C 148.0547,117.19138 148.07179,117.21139 148.0947,117.22359 C 148.5874,117.4785 149.50929,117.62839 150.27339,117.73679 C 150.58009,117.7807 150.6006,117.7729 150.646,117.4883 C 150.72459,117.00629 150.72459,117.00629 150.72459,117.00629 C 153.3472,118.10738 158.63919,118.9468 163.90039,118.84129 C 167.8618,118.7627 173.0952,118.2929 176.9971,117.208 C 179.5244,116.4482 181.0938,115.91939 182.42679,114.813 C 182.73,114.978 183.0737,115.1875 183.4146,115.3442 C 184.24899,115.708 184.5732,115.5058 185.1855,115.2807 C 185.62349,115.1128 186.0771,114.92329 186.52829,114.7378 C 187.97749,114.14259 189.5376,113.5097 191.1064,113.8642 C 191.3105,113.9116 191.3311,113.91839 191.4482,113.7085 C 191.80659,113.0556 191.80659,113.0556 191.80659,113.0556 C 191.90039,112.8867 191.9189,112.8276 191.7119,112.8379 C 190.4507,112.896 189.21289,112.73389 188.1348,112.4795 C 186.62889,112.124 185.98729,111.37939 185.13379,111.437 Z M 149.09129,115.2949 C 149.3154,115.7959 149.5752,116.19189 149.88429,116.4926 C 149.23439,116.3725 148.5591,116.2353 148.11079,115.979 C 147.9771,115.90279 147.9814,115.8408 148.0645,115.73 C 148.22119,115.5239 148.4556,115.3613 148.687,115.2026 C 148.76419,115.14838 148.83501,115.1142 148.9043,115.1235 C 148.9736,115.1338 149.0444,115.19038 149.09129,115.2949 Z"
         id="path55"
         style="stroke-width:1.41965" />
      <path
         shapetype="870" class="quran-text"
         pathid="507"
         charindex="0"
         Unicode=""
         UnicodeChar=""
         UnicodeIndex="0"
         pathtext=""
         pathtextsimple=""
         d="M 201.6514,111.61909 C 201.1348,112.2309 201.1348,112.2309 201.1348,112.2309 C 201.04489,112.3315 201.02829,112.3633 201.14259,112.4502 C 201.8262,113.00339 201.8262,113.00339 201.8262,113.00339 C 201.98239,113.1255 201.97069,113.09669 202.0811,112.97359 C 202.22949,112.7925 202.37889,112.6103 202.53909,112.39259 C 202.6387,112.2593 202.64259,112.2729 202.50879,112.16209 C 201.87399,111.61909 201.87399,111.61909 201.87399,111.61909 C 201.75589,111.52338 201.7363,111.5161 201.6514,111.61909 Z"
         id="path56"
         style="stroke-width:1.41965" />
      <path
         shapetype="870" class="quran-text"
         pathid="506"
         charindex="0"
         Unicode=""
         UnicodeChar=""
         UnicodeIndex="0"
         pathtext=""
         pathtextsimple=""
         d="M 189.8862,115.3027 C 185.74019,116.9463 185.74019,116.9463 185.74019,116.9463 C 185.62889,116.9926 185.59279,117.018 185.55659,117.1093 C 185.4263,117.4468 185.4263,117.4468 185.4263,117.4468 C 185.312,117.7671 185.3618,117.708 185.6895,117.5718 C 186.82959,117.0942 188.6763,116.40379 189.85159,115.89989 C 190.01169,115.8296 189.99269,115.8452 190.0273,115.7197 C 190.0938,115.4619 190.0938,115.4619 190.0938,115.4619 C 190.1689,115.17229 190.1758,115.1801 189.8862,115.3027 Z"
         id="path57"
         style="stroke-width:1.41965" />
      <path
         shapetype="870" class="quran-text"
         pathid="505"
         charindex="0"
         Unicode=""
         UnicodeChar=""
         UnicodeIndex="0"
         pathtext=""
         pathtextsimple=""
         d="M 183.1929,116.5078 C 182.68019,117.1767 182.68019,117.1767 182.68019,117.1767 C 182.6416,117.22359 182.6396,117.25729 182.63379,117.28609 C 182.6167,117.26559 182.5889,117.24699 182.53999,117.208 C 181.8555,116.6635 181.8555,116.6635 181.8555,116.6635 C 181.729,116.56638 181.7061,116.5512 181.6221,116.6635 C 181.1089,117.3325 181.1089,117.3325 181.1089,117.3325 C 181.02049,117.4433 181.01759,117.4785 181.14009,117.56589 C 181.87109,118.126 181.87109,118.126 181.87109,118.126 C 182.0381,118.2485 182.0264,118.2148 182.1357,118.07909 C 182.28029,117.88129 182.41409,117.6933 182.57129,117.457 C 182.5952,117.4209 182.62109,117.3852 182.63379,117.36369 C 182.64749,117.3789 182.6685,117.39159 182.6953,117.4101 C 183.42679,117.95509 183.42679,117.95509 183.42679,117.95509 C 183.5938,118.0776 183.582,118.0591 183.6909,117.9238 C 183.83539,117.726 183.98489,117.5229 184.14259,117.28609 C 184.2388,117.14059 184.23779,117.14838 184.0952,117.0376 C 183.42679,116.4926 183.42679,116.4926 183.42679,116.4926 C 183.3638,116.44479 183.3179,116.41399 183.28659,116.41499 C 183.25439,116.41499 183.23489,116.4521 183.1929,116.5078 Z"
         id="path58"
         style="stroke-width:1.41965" />
      <path
         shapetype="870" class="quran-text"
         pathid="504"
         charindex="0"
         Unicode=""
         UnicodeChar=""
         UnicodeIndex="0"
         pathtext=""
         pathtextsimple=""
         d="M 282.16599,117.77679 C 281.66409,118.3882 281.66409,118.3882 281.66409,118.3882 C 281.57709,118.4883 281.56149,118.52 281.67191,118.6069 C 282.33591,119.1606 282.33591,119.1606 282.33591,119.1606 C 282.48929,119.2827 282.47659,119.2549 282.58401,119.13029 C 282.72849,118.9497 282.87399,118.76759 283.0293,118.5503 C 283.12601,118.4165 283.12891,118.42969 282.99899,118.31979 C 282.38278,117.77679 282.38278,117.77679 282.38278,117.77679 C 282.26859,117.6801 282.24899,117.67329 282.16599,117.77679 Z"
         id="path59"
         style="stroke-width:1.41965" />
      <path
         shapetype="870" class="quran-text"
         pathid="503"
         charindex="0"
         Unicode=""
         UnicodeChar=""
         UnicodeIndex="0"
         pathtext=""
         pathtextsimple=""
         d="M 225.12399,118.1469 C 221.8848,119.7075 221.8848,119.7075 221.8848,119.7075 C 221.7988,119.751 221.77049,119.77589 221.73929,119.8706 C 221.63179,120.2173 221.63179,120.2173 221.63179,120.2173 C 221.53709,120.5468 221.57709,120.4883 221.832,120.3579 C 222.72459,119.90179 224.166,119.25139 225.08501,118.76849 C 225.21089,118.7021 225.1953,118.71629 225.2256,118.58739 C 225.2822,118.3203 225.2822,118.3203 225.2822,118.3203 C 225.34569,118.0215 225.35159,118.0293 225.12399,118.1469 Z"
         id="path60"
         style="stroke-width:1.41965" />
      <path
         shapetype="870" class="quran-text"
         pathid="502"
         charindex="0"
         Unicode=""
         UnicodeChar=""
         UnicodeIndex="0"
         pathtext=""
         pathtextsimple=""
         d="M 151.2197,118.8838 C 147.65529,120.2148 147.65529,120.2148 147.65529,120.2148 C 147.5605,120.2529 147.52879,120.27438 147.49269,120.3633 C 147.36279,120.688 147.36279,120.688 147.36279,120.688 C 147.248,120.9985 147.2935,120.9433 147.57469,120.8325 C 148.5562,120.43938 150.14059,119.8891 151.15379,119.4731 C 151.29201,119.4155 151.2744,119.4282 151.311,119.3081 C 151.3833,119.0551 151.3833,119.0551 151.3833,119.0551 C 151.46339,118.77489 151.4688,118.7822 151.2197,118.8838 Z"
         id="path61"
         style="stroke-width:1.41965" />
      <path
         shapetype="870" class="quran-text"
         pathid="501"
         charindex="0"
         Unicode=""
         UnicodeChar=""
         UnicodeIndex="0"
         pathtext=""
         pathtextsimple=""
         d="M 284.6084,119.2177 C 280.79691,120.542 280.79691,120.542 280.79691,120.542 C 280.6973,120.5796 280.66208,120.603 280.62109,120.6977 C 280.47168,121.0478 280.47168,121.0478 280.47168,121.0478 C 280.33789,121.3808 280.3887,121.3222 280.68948,121.2109 C 281.73929,120.8193 283.43158,120.27438 284.5166,119.85789 C 284.66409,119.7998 284.64648,119.813 284.68851,119.68259 C 284.77438,119.41109 284.77438,119.41109 284.77438,119.41109 C 284.86908,119.10738 284.875,119.1162 284.6084,119.2177 Z"
         id="path62"
         style="stroke-width:1.41965" />
      <path
         shapetype="870" class="quran-text"
         pathid="500"
         charindex="0"
         Unicode=""
         UnicodeChar=""
         UnicodeIndex="0"
         pathtext=""
         pathtextsimple=""
         d="M 205.5322,119.74699 C 201.24319,121.5957 201.24319,121.5957 201.24319,121.5957 C 201.1299,121.6469 201.09279,121.67429 201.0576,121.7715 C 200.93159,122.12839 200.93159,122.12839 200.93159,122.12839 C 200.8223,122.4668 200.873,122.4043 201.21089,122.25139 C 202.3887,121.71629 204.29979,120.938 205.51459,120.37299 C 205.67969,120.2949 205.6602,120.31 205.6924,120.1801 C 205.7549,119.9067 205.7549,119.9067 205.7549,119.9067 C 205.82419,119.60249 205.832,119.60979 205.5322,119.74699 Z"
         id="path63"
         style="stroke-width:1.41965" />
      <path
         shapetype="870" class="quran-text"
         pathid="499"
         charindex="0"
         Unicode=""
         UnicodeChar=""
         UnicodeIndex="0"
         pathtext=""
         pathtextsimple=""
         d="M 239.87601,119.7837 C 236.52339,121.2837 236.52339,121.2837 236.52339,121.2837 C 236.4355,121.3257 236.4063,121.34959 236.377,121.4385 C 236.2695,121.7651 236.2695,121.7651 236.2695,121.7651 C 236.1758,122.0761 236.21579,122.01949 236.4805,121.8955 C 237.4023,121.458 238.8945,120.8305 239.84569,120.3676 C 239.97359,120.3037 239.959,120.31689 239.98729,120.1963 C 240.043,119.9443 240.043,119.9443 240.043,119.9443 C 240.10449,119.66309 240.1104,119.6709 239.87601,119.7837 Z"
         id="path64"
         style="stroke-width:1.41965" />
    </g>
  </g>
</svg>
